<svg width="205" height="66" viewBox="0 0 205 66" version="1.1" xmlns="http://www.w3.org/2000/svg" xmlns:xlink="http://www.w3.org/1999/xlink">
<g id="Canvas" fill="none">
<g id="logo--raio-x">
<g id="Seta">
<path id="&#60;Caminho&#62;" d="M 26.6012 20.7537L 5.42552 35.2538C 4.90594 35.61 4.2984 35.8181 3.66856 35.8557C 3.03873 35.8932 2.41051 35.7588 1.85191 35.4669C 1.2933 35.1749 0.825567 34.7367 0.499166 34.1994C 0.172766 33.6621 0.000134483 33.0463 -8.35701e-06 32.4185L -8.35701e-06 3.44375C 0.000835209 2.8162 0.1738 2.20077 0.500211 1.66379C 0.826622 1.12681 1.29411 0.688632 1.85232 0.396477C 2.41053 0.104323 3.03828 -0.0307284 3.66794 0.00587097C 4.29759 0.0424704 4.9053 0.249329 5.42552 0.604169L 26.6012 15.1043C 27.0628 15.421 27.4402 15.8445 27.7008 16.3384C 27.9615 16.8323 28.0977 17.3818 28.0977 17.9397C 28.0977 18.4975 27.9615 19.047 27.7008 19.5409C 27.4402 20.0348 27.0628 20.4583 26.6012 20.775" transform="translate(176.902 20.1158)" fill="#E52228"/>
</g>
<g id="Raio">
<g id="&#60;Grupo&#62;">
<path id="&#60;Caminho composto&#62;" d="M 24.2051 40.3161L 13.0803 22.3207L 3.88942 22.3207L 1.37349 40.3161L -9.40164e-06 40.3161L 5.65228 -5.71651e-06L 19.9606 -5.71651e-06C 26.9992 -5.71651e-06 31.9754 2.73315 31.0041 10.9326C 29.8018 19.3023 24.2522 22.3207 16.8841 22.3207L 14.7105 22.3207L 25.8696 40.3161L 24.2051 40.3161ZM 17.051 21.0691C 24.4362 21.0691 28.6037 18.089 29.6435 10.9879C 30.6747 3.69955 26.3231 1.19628 19.8579 1.30697L 6.86319 1.30697L 4.06058 21.0691L 17.051 21.0691Z" transform="translate(0 14.9727)" fill="white"/>
<path id="&#60;Caminho composto&#62;_2" d="M 32.2792 40.3161L 30.7346 40.3161L 27.4142 25.9096L 8.69879 25.9096L 1.54464 40.3161L -2.08925e-06 40.3161L 20.5382 -5.71651e-06L 23.1055 -5.71651e-06L 32.2792 40.3161ZM 27.1874 24.4834L 21.9202 1.06857L 21.5779 1.06857L 9.44329 24.4834L 27.1874 24.4834Z" transform="translate(29.9857 14.9727)" fill="white"/>
<path id="&#60;Caminho composto&#62;_3" d="M 1.42912 40.3161L -1.14909e-05 40.3161L 5.66513 -5.71651e-06L 7.09423 -5.71651e-06L 1.42912 40.3161Z" transform="translate(68.619 14.9727)" fill="white"/>
<path id="&#60;Caminho composto&#62;_4" d="M 2.66962 11.3881C 3.70081 3.81448 11.4839 -4.15746e-06 19.3227 -4.15746e-06C 26.879 -4.15746e-06 33.8706 3.83151 32.8308 11.3881L 30.2635 30.0093C 29.2323 37.5829 21.1069 41.457 13.5506 41.457C 5.99424 41.457 -0.92884 37.5829 0.102349 30.0093L 2.66962 11.3881ZM 1.52291 30.0178C 0.607249 36.7357 6.84572 40.0393 13.7132 40.0393C 20.5806 40.0393 27.9102 36.7272 28.8259 30.0178L 31.3931 11.3966C 32.3644 4.33388 25.8307 1.37509 19.0274 1.37509C 12.2242 1.37509 5.06575 4.44882 4.09018 11.3966L 1.52291 30.0178Z" transform="translate(81.2289 14.4023)" fill="white"/>
</g>
</g>
<g id="X">
<g id="&#60;Grupo&#62;_2">
<path id="&#60;Caminho composto&#62;_5" d="M 51.8076 1.55905e-06L 71.2975 1.55905e-06L 48.0594 33.0958L 62.0211 66L 42.5312 66L 34.0036 43.5345L 19.5755 66L -7.31239e-06 66L 23.2381 33.0958L 9.27641 1.55905e-06L 28.8604 1.55905e-06L 37.0116 22.5634L 51.8076 1.55905e-06Z" transform="translate(108.737 0)" fill="white"/>
</g>
</g>
</g>
</g>
</svg>
