<svg height="19" viewBox="0 0 240 19" width="240" xmlns="http://www.w3.org/2000/svg"><g fill="none"><g fill="#e52228" transform="translate(151.047 .154175)"><path d="m16.9352 9.42117c0 1.39043-.2368 2.66573-.7104 3.82603-.464 1.1602-1.0875 2.1527-1.8704 2.9774-.783.8246-1.682 1.4671-2.6969 1.9273-1.015.4603-2.07826.6904-3.18988.6904s-2.17973-.2301-3.20436-.6904c-1.01495-.4602-1.91391-1.1027-2.69687-1.9273-.78297-.8247-1.40644-1.8172-1.870421-2.9774-.463979-1.1603-.695969-2.4356-.695969-3.82603 0-1.3904.23199-2.66573.695969-3.826.463981-1.16027 1.087451-2.15273 1.870421-2.97738.78296-.82465 1.68192-1.46711 2.69687-1.927383 1.02463-.460271 2.09274-.690407 3.20436-.690407s2.17488.230136 3.18988.690407c1.0149.460273 1.9139 1.102733 2.6969 1.927383.7829.82465 1.4064 1.81711 1.8704 2.97738.4736 1.16027.7104 2.4356.7104 3.826zm-15.44177 0c0 1.21783.18366 2.32533.55098 3.32263.37698.9876.88929 1.8362 1.53693 2.5458.64764.7 1.39194 1.2466 2.2329 1.6397.84096.3932 1.72542.5898 2.65338.5898s1.81238-.1966 2.65338-.5898c.841-.3931 1.5804-.9397 2.2184-1.6397.6476-.7096 1.16-1.5582 1.5369-2.5458.377-.9973.5655-2.1048.5655-3.32263 0-1.2178-.1885-2.32053-.5655-3.30819-.3769-.99726-.8893-1.84588-1.5369-2.54588-.638-.70958-1.3774-1.26095-2.2184-1.6541s-1.72542-.58972-2.65338-.58972-1.81242.19657-2.65338.58972-1.58526.94452-2.2329 1.6541c-.64764.7-1.15995 1.54862-1.53693 2.54588-.36732.98766-.55098 2.09039-.55098 3.30819z"/><path d="m33.856.143835v18.554665h-1.334l-10.251-15.76427v15.76427h-1.4789v-18.554665h1.3339l10.2511 15.749865v-15.749865z"/><path d="m49.7618 17.3752v1.3233h-10.8455v-18.554665h1.4789v17.231365z"/><path d="m54.1986 18.6985h-1.479v-18.554665h1.479z"/><path d="m72.3083.143835v18.554665h-1.334l-10.251-15.76427v15.76427h-1.4789v-18.554665h1.3339l10.251 15.749865v-15.749865z"/><path d="m88.9535 17.3752v1.3233h-11.585v-18.554665h11.2805v1.323275h-9.8015v6.91845h9.0621v1.32328h-9.0621v7.66636z"/></g><g fill="#333"><path d="m16.0351.294583h3.8603v18.558117h-4.3057v-9.27905l-4.3057 9.27905h-2.67255l-4.30572-9.27905v9.27905h-4.30573v-18.558117h3.86031l6.08741 13.108517z"/><path d="m23.46.294583h13.3626v4.124027h-9.0569v2.94574h8.3145v4.12405h-8.3145v3.2403h9.3538v4.124h-13.6595z"/><path d="m55.8144.294583v18.558117h-3.8603l-7.5722-10.89921v10.89921h-4.3057v-18.558117h3.8603l7.5722 10.899217v-10.899217z"/><path d="m67.5554 18.8527h-4.3057v-14.43409h-5.3451v-4.124027h14.9958v4.124027h-5.345z"/><path d="m87.6248 9.57365c0-.76589-.1287-1.47287-.386-2.12093-.2574-.64806-.6137-1.20775-1.069-1.67907-.4356-.47132-.9503-.83462-1.5442-1.08992-.5938-.27494-1.2273-.4124-1.9004-.4124s-1.3066.13746-1.9005.4124c-.5939.2553-1.1185.6186-1.5738 1.08992-.4355.47132-.782 1.03101-1.0393 1.67907-.2574.64806-.386 1.35504-.386 2.12093 0 .76585.1286 1.47285.386 2.12095.2573.648.6038 1.2077 1.0393 1.679.4553.4714.9799.8445 1.5738 1.1194.5939.2553 1.2274.383 1.9005.383s1.3066-.1277 1.9004-.383c.5939-.2749 1.1086-.648 1.5442-1.1194.4553-.4713.8116-1.031 1.069-1.679.2573-.6481.386-1.3551.386-2.12095zm4.3057 0c0 1.33535-.2474 2.57265-.7423 3.71165-.4752 1.139-1.1284 2.1405-1.9599 3.0046-.8314.8445-1.8114 1.5122-2.9398 2.0031-1.1086.4713-2.2963.707-3.5633.707s-2.4647-.2357-3.5931-.707c-1.1086-.4909-2.0786-1.1586-2.9101-2.0031-.8314-.8641-1.4946-1.8656-1.9895-3.0046-.4751-1.139-.7127-2.3763-.7127-3.71165 0-1.31576.2376-2.54315.7127-3.68217.4949-1.15866 1.1581-2.16021 1.9895-3.00465.8315-.86408 1.8015-1.53178 2.9101-2.0031 1.1284-.490956 2.3261-.736434 3.5931-.736434s2.4547.245478 3.5633.736434c1.1284.47132 2.1084 1.13902 2.9398 2.0031.8315.84444 1.4847 1.84599 1.9599 3.00465.4949 1.13902.7423 2.36641.7423 3.68217z"/><path d="m102.166.294583c.97 0 1.851.157106 2.643.471317.811.31421 1.504.73643 2.078 1.26667.574.53023 1.02 1.15865 1.337 1.88527.316.70697.475 1.46305.475 2.26821 0 1.04083-.188 1.91473-.564 2.62171-.357.70697-.763 1.28634-1.218 1.73794-.435.4321-.841.7463-1.217.9427-.377.1964-.565.2945-.565.2945l4.158 7.0698h-4.752l-3.414-6.186h-2.2275v6.186h-4.3057v-18.558117zm0 8.248057c.752 0 1.336-.19638 1.752-.58915.416-.39276.623-.88372.623-1.47286 0-.58915-.207-1.08011-.623-1.47287-.416-.39277-1-.58915-1.752-.58915h-3.2665v4.12403z"/><path d="m111.529.294583h13.363v4.124027h-9.057v2.94574h8.314v4.12405h-8.314v3.2403h9.354v4.124h-13.66z"/><path d="m127.403 5.44962c0-.70698.148-1.37468.445-2.0031.317-.64806.762-1.20775 1.337-1.67907.574-.49096 1.267-.88372 2.078-1.178294.832-.294573 1.772-.44186 2.821-.44186 1.01 0 1.911.147287 2.702.44186.812.294574 1.495.706974 2.049 1.237204.574.53024 1.01 1.15866 1.307 1.88528.317.70697.475 1.48268.475 2.32713l-4.157.29457c0-.74625-.208-1.32558-.624-1.73798-.416-.41241-1-.61861-1.752-.61861-.673 0-1.217.18656-1.633.55969-.396.35349-.594.75607-.594 1.20775s.228.79535.683 1.03101 1.02.4615 1.693.67752c.693.19638 1.435.4124 2.227.64806s1.524.56951 2.197 1.00155c.693.43204 1.267 1.00157 1.722 1.70857.456.7069.683 1.6201.683 2.7395 0 .7462-.158 1.4532-.475 2.1209-.297.6481-.742 1.2176-1.336 1.7085-.594.491-1.326.8838-2.197 1.1783-.871.2946-1.861.4419-2.97.4419-1.069 0-2.029-.1473-2.88-.4419-.851-.2945-1.574-.7069-2.168-1.2372-.574-.5498-1.019-1.1881-1.336-1.9147-.297-.7462-.446-1.5612-.446-2.445l4.158-.2945c0 1.6692.891 2.5038 2.672 2.5038.832 0 1.455-.1865 1.871-.5596.435-.3928.653-.8445.653-1.3551 0-.4713-.227-.8346-.683-1.0899-.455-.2553-1.029-.491-1.722-.707-.673-.216-1.406-.4418-2.197-.6775-.792-.2357-1.535-.5597-2.228-.97209-.673-.43204-1.237-.99173-1.692-1.67907s-.683-1.58088-.683-2.68062z"/><path clip-rule="evenodd" d="m91.2625 13.138c.4951-1.1391.7426-2.3762.7426-3.71165 0-1.31575-.2475-2.54313-.7426-3.68217-.4752-1.15865-1.128-2.1602-1.9595-3.00464-.8315-.86409-1.8117-1.53178-2.9397-2.003092-1.109-.490965-2.2969-.736448-3.5636-.736448-1.2666 0-2.4645.245483-3.5935.736448-1.108.471312-2.0782 1.139002-2.9097 2.003092-.8315.84444-1.4943 1.84599-1.9894 3.00464-.4752 1.13904-.7128 2.36642-.7128 3.68217 0 1.33545.2376 2.57255.7128 3.71165.4951 1.139 1.1579 2.1405 1.9894 3.0046.8315.8445 1.8017 1.5122 2.9097 2.0031 1.129.4713 2.3269.707 3.5935.707 1.2667 0 2.4546-.2357 3.5636-.707 1.128-.4909 2.1082-1.1586 2.9397-2.0031.8315-.8641 1.4843-1.8656 1.9595-3.0046zm-10.9106.524 7.6733-4.39485-7.6733-4.39484z" fill-rule="evenodd"/></g></g></svg>